<svg xmlns="http://www.w3.org/2000/svg" viewBox="0 0 24 24" fill="currentColor">
  <path d="M22.28 11.23c-.09-1.34-.69-2.58-1.7-3.48a6.38 6.38 0 0 0-3.8-1.63 7.82 7.82 0 0 0-2.8-.2l-.18-.34a6.63 6.63 0 0 0-4.04-2.73 6.94 6.94 0 0 0-5.74.88 6.74 6.74 0 0 0-3.32 4 6.13 6.13 0 0 0 .16 4.7 6.27 6.27 0 0 0 1.63 3.61 6.55 6.55 0 0 0 3.73 1.8 7.33 7.33 0 0 0 2.89-.03l.25.47a6.6 6.6 0 0 0 4.08 2.72c2.14.36 4-.13 5.4-1.39a6.68 6.68 0 0 0 3.16-4.22c.28-1.57-.1-3.07-1-4.14ZM11.1 22.14a4.34 4.34 0 0 1-2.61-1.74l4.58-2.67.14-.07v-5.2l3.43 1.98v.17c0 2.15-1.12 3.97-2.93 5.14a4.4 4.4 0 0 1-2.61.39Zm7.53-3.62c-1.1.66-2.57.87-4 .4v.02l-4.57-2.66v-.16L6.64 14.1l1.7-2.97 4.54 2.62.11.08v5.12c1.72-.08 3.14-1.13 3.92-2.45a4.2 4.2 0 0 0-.28-3.98Zm2.6-6.52a4.4 4.4 0 0 1-1.37 3A4.65 4.65 0 0 1 17 16.27l-4.63-2.66-.08-.13V8.1L15.75 6.1l.1.15c1.47.88 2.45 2.44 2.45 4.32ZM12.92 1.83a4.32 4.32 0 0 1 2.58 1.76l-4.57 2.66-.14.07v5.22l-3.41-1.99V9.4A6.1 6.1 0 0 1 10.3 4.24a4.45 4.45 0 0 1 2.62-.41ZM5.38 5.46c1.11-.64 2.6-.85 4-.4L13.9 7.7v.14l-3.41 1.98-1.74 3.02-4.51-2.62-.11-.08v-5.1A4.73 4.73 0 0 1 5.38 5.46Zm-2.6 6.54a4.52 4.52 0 0 1 1.37-3 4.5 4.5 0 0 1 2.87-1.27l4.63 2.68.08.13v5.39L8.3 17.9v-.11A5 5 0 0 1 5.8 13.5v-1.5ZM12 14.33l-2.02-1.17V10.8L12 9.64l2 1.17v2.35L12 14.33Z"/>
</svg>
