<svg xmlns="http://www.w3.org/2000/svg" width="1024" height="1024" viewBox="0 0 1024 1024" fill="none">
  <defs>
    <linearGradient id="bg" x1="128" y1="96" x2="896" y2="960" gradientUnits="userSpaceOnUse">
      <stop offset="0" stop-color="#1E215E"/>
      <stop offset="0.54" stop-color="#262774"/>
      <stop offset="1" stop-color="#353092"/>
    </linearGradient>
    <radialGradient id="glow-left" cx="0" cy="0" r="1" gradientUnits="userSpaceOnUse" gradientTransform="translate(300 496) rotate(90) scale(316 242)">
      <stop offset="0" stop-color="#A5D8FF" stop-opacity="0.38"/>
      <stop offset="1" stop-color="#A5D8FF" stop-opacity="0"/>
    </radialGradient>
    <radialGradient id="glow-right" cx="0" cy="0" r="1" gradientUnits="userSpaceOnUse" gradientTransform="translate(720 522) rotate(90) scale(346 272)">
      <stop offset="0" stop-color="#C286FF" stop-opacity="0.34"/>
      <stop offset="1" stop-color="#C286FF" stop-opacity="0"/>
    </radialGradient>
  </defs>

  <rect width="1024" height="1024" rx="76" fill="url(#bg)"/>
  <rect width="1024" height="1024" rx="76" fill="url(#glow-left)"/>
  <rect width="1024" height="1024" rx="76" fill="url(#glow-right)"/>

  <g opacity="0.28" fill="#F8FBFF">
    <rect x="156" y="172" width="146" height="680" rx="73"/>
    <rect x="346" y="254" width="146" height="516" rx="73"/>
    <rect x="536" y="394" width="146" height="236" rx="73"/>
    <rect x="726" y="312" width="146" height="400" rx="73"/>
    <rect x="916" y="172" width="146" height="680" rx="73" transform="translate(-12 0)"/>
  </g>

  <g fill="#FCFDFF">
    <rect x="172" y="188" width="114" height="648" rx="57"/>
    <rect x="362" y="270" width="114" height="484" rx="57"/>
    <rect x="552" y="410" width="114" height="204" rx="57"/>
    <rect x="742" y="328" width="114" height="368" rx="57"/>
    <rect x="932" y="188" width="114" height="648" rx="57" transform="translate(-12 0)"/>
  </g>
</svg>
